<svg width="16" height="14" viewBox="0 0 16 14" fill="none" xmlns="http://www.w3.org/2000/svg">
<path d="M0.916667 13.5833C0.777778 13.5833 0.652778 13.5556 0.541667 13.5C0.444445 13.4306 0.368056 13.3472 0.3125 13.25C0.243056 13.1528 0.215278 13.0417 0.229167 12.9167C0.243056 12.7917 0.277778 12.6736 0.333333 12.5625L7.4375 0.770833C7.49306 0.659721 7.56945 0.583332 7.66667 0.541666C7.77778 0.486111 7.88889 0.458333 8 0.458333C8.11111 0.458333 8.21528 0.486111 8.3125 0.541666C8.42361 0.583332 8.50695 0.659721 8.5625 0.770833L15.6667 12.5625C15.7222 12.6736 15.7569 12.7917 15.7708 12.9167C15.7847 13.0417 15.7569 13.1528 15.6875 13.25C15.6181 13.3472 15.5347 13.4306 15.4375 13.5C15.3403 13.5556 15.2222 13.5833 15.0833 13.5833H0.916667ZM8 11.3333C8.16667 11.3333 8.30556 11.2778 8.41667 11.1667C8.52778 11.0556 8.58333 10.9167 8.58333 10.75C8.58333 10.5833 8.52778 10.4444 8.41667 10.3333C8.30556 10.2222 8.16667 10.1667 8 10.1667C7.83333 10.1667 7.69444 10.2222 7.58333 10.3333C7.47222 10.4444 7.41667 10.5833 7.41667 10.75C7.41667 10.9167 7.47222 11.0556 7.58333 11.1667C7.69444 11.2778 7.83333 11.3333 8 11.3333ZM8 9.16667C8.15278 9.16667 8.27778 9.11806 8.375 9.02083C8.48611 8.90972 8.54167 8.77778 8.54167 8.625V5.70833C8.54167 5.55555 8.48611 5.43055 8.375 5.33333C8.27778 5.22222 8.15278 5.16667 8 5.16667C7.84722 5.16667 7.71528 5.22222 7.60417 5.33333C7.50695 5.43055 7.45833 5.55555 7.45833 5.70833V8.625C7.45833 8.77778 7.50695 8.90972 7.60417 9.02083C7.71528 9.11806 7.84722 9.16667 8 9.16667Z" fill="#130FD3"/>
</svg>
