<svg width="12" height="12" viewBox="0 0 12 12" fill="none" xmlns="http://www.w3.org/2000/svg">
<path d="M0 12V0H3.75V5.625L7.125 2.25L9.75 4.875L6.375 8.25H12V12H7.5L3.75 8.25V12H0Z" fill="#130FD3"/>
<path d="M10.263 1.91122V0.731889H10.8287C10.8883 0.731889 10.9458 0.746271 11.0012 0.775036C11.0577 0.802734 11.104 0.844283 11.1403 0.89968C11.1776 0.954013 11.1962 1.02113 11.1962 1.10103C11.1962 1.18093 11.177 1.25018 11.1387 1.30877C11.1014 1.3663 11.0534 1.41051 10.9949 1.44141C10.9373 1.4723 10.8777 1.48775 10.8159 1.48775H10.378V1.32635H10.7615C10.8159 1.32635 10.8643 1.30717 10.907 1.26882C10.9506 1.2294 10.9725 1.17347 10.9725 1.10103C10.9725 1.02646 10.9506 0.973189 10.907 0.941229C10.8643 0.909268 10.8175 0.893288 10.7663 0.893288H10.4691V1.91122H10.263ZM10.9501 1.3631L11.2441 1.91122H11.014L10.728 1.3631H10.9501ZM10.696 2.61435C10.5192 2.61435 10.3535 2.58132 10.199 2.51527C10.0446 2.44922 9.90874 2.3576 9.79155 2.24041C9.67436 2.12322 9.58274 1.98739 9.51669 1.83292C9.45064 1.67844 9.41761 1.51278 9.41761 1.33594C9.41761 1.15909 9.45064 0.99343 9.51669 0.838956C9.58274 0.684482 9.67436 0.548651 9.79155 0.431463C9.90874 0.314276 10.0446 0.222656 10.199 0.156605C10.3535 0.0905539 10.5192 0.0575283 10.696 0.0575283C10.8729 0.0575283 11.0385 0.0905539 11.193 0.156605C11.3475 0.222656 11.4833 0.314276 11.6005 0.431463C11.7177 0.548651 11.8093 0.684482 11.8754 0.838956C11.9414 0.99343 11.9744 1.15909 11.9744 1.33594C11.9744 1.51278 11.9414 1.67844 11.8754 1.83292C11.8093 1.98739 11.7177 2.12322 11.6005 2.24041C11.4833 2.3576 11.3475 2.44922 11.193 2.51527C11.0385 2.58132 10.8729 2.61435 10.696 2.61435ZM10.696 2.37624C10.8878 2.37624 11.062 2.32937 11.2186 2.23562C11.3762 2.14187 11.502 2.01669 11.5957 1.86009C11.6895 1.70241 11.7363 1.5277 11.7363 1.33594C11.7363 1.14418 11.6895 0.969993 11.5957 0.813388C11.502 0.655717 11.3762 0.530007 11.2186 0.436257C11.062 0.342507 10.8878 0.295632 10.696 0.295632C10.5043 0.295632 10.3295 0.342507 10.1719 0.436257C10.0153 0.530007 9.89009 0.655717 9.79634 0.813388C9.70259 0.969993 9.65572 1.14418 9.65572 1.33594C9.65572 1.5277 9.70259 1.70241 9.79634 1.86009C9.89009 2.01669 10.0153 2.14187 10.1719 2.23562C10.3295 2.32937 10.5043 2.37624 10.696 2.37624Z" fill="#130FD3"/>
</svg>
