<svg width="18" height="18" viewBox="0 0 18 18" fill="none" xmlns="http://www.w3.org/2000/svg">
<path d="M17 9C16.7333 9 16.4917 8.90833 16.275 8.725C16.075 8.525 15.9583 8.28333 15.925 8C15.7083 6.45 15.05 5.13333 13.95 4.05C12.8667 2.95 11.55 2.29167 10 2.075C9.71667 2.04167 9.475 1.925 9.275 1.725C9.09167 1.525 9 1.28333 9 0.999999C9 0.716665 9.1 0.483332 9.3 0.299998C9.5 0.0999985 9.73333 0.0166655 10 0.0499992C12.1 0.283333 13.8917 1.14167 15.375 2.625C16.8583 4.10833 17.7167 5.9 17.95 8C17.9833 8.26667 17.9 8.5 17.7 8.7C17.5167 8.9 17.2833 9 17 9ZM12.825 9C12.6083 9 12.4167 8.925 12.25 8.775C12.0833 8.625 11.9583 8.425 11.875 8.175C11.7417 7.69167 11.4833 7.26667 11.1 6.9C10.7333 6.51667 10.3083 6.25833 9.825 6.125C9.575 6.04167 9.375 5.91667 9.225 5.75C9.075 5.58333 9 5.38333 9 5.15C9 4.81667 9.11667 4.55 9.35 4.35C9.58333 4.13333 9.84167 4.05833 10.125 4.125C11.0583 4.34167 11.8583 4.79167 12.525 5.475C13.2083 6.14167 13.6583 6.94167 13.875 7.875C13.9417 8.15833 13.8667 8.41667 13.65 8.65C13.4333 8.88333 13.1583 9 12.825 9ZM16.95 18C14.8 18 12.7 17.525 10.65 16.575C8.61667 15.6083 6.80833 14.3417 5.225 12.775C3.65833 11.1917 2.39167 9.38333 1.425 7.35C0.475 5.3 0 3.2 0 1.05C0 0.749999 0.1 0.499999 0.3 0.299998C0.5 0.0999985 0.75 -1.43051e-06 1.05 -1.43051e-06H5.1C5.33333 -1.43051e-06 5.54167 0.0749989 5.725 0.224999C5.90833 0.374999 6.01667 0.566666 6.05 0.799999L6.7 4.3C6.73333 4.53333 6.725 4.75 6.675 4.95C6.64167 5.13333 6.55 5.3 6.4 5.45L4 7.9C4.7 9.1 5.575 10.225 6.625 11.275C7.675 12.325 8.83333 13.2333 10.1 14L12.45 11.65C12.6 11.5 12.7917 11.3917 13.025 11.325C13.275 11.2417 13.5167 11.2167 13.75 11.25L17.2 11.95C17.4333 12 17.625 12.1167 17.775 12.3C17.925 12.4667 18 12.6667 18 12.9V16.95C18 17.25 17.9 17.5 17.7 17.7C17.5 17.9 17.25 18 16.95 18ZM3.05 6L4.7 4.35L4.25 2H2.05C2.13333 2.68333 2.25 3.35833 2.4 4.025C2.55 4.69167 2.76667 5.35 3.05 6ZM16 15.95V13.75L13.65 13.25L12 14.9C12.65 15.1833 13.3083 15.4167 13.975 15.6C14.6417 15.7833 15.3167 15.9 16 15.95Z" fill="#DBFF00"/>
</svg>
