<svg width="20" height="20" viewBox="0 0 20 20" fill="none" xmlns="http://www.w3.org/2000/svg">
<path d="M9.975 17C10.2083 17 10.4083 16.9167 10.575 16.75C10.7583 16.5667 10.85 16.3583 10.85 16.125V15.75C11.6833 15.6 12.4 15.275 13 14.775C13.6 14.275 13.9 13.5333 13.9 12.55C13.9 11.85 13.7 11.2083 13.3 10.625C12.9 10.0417 12.1 9.53333 10.9 9.1C9.9 8.76667 9.20833 8.475 8.825 8.225C8.44167 7.975 8.25 7.63333 8.25 7.2C8.25 6.76667 8.4 6.425 8.7 6.175C9.01667 5.925 9.46667 5.8 10.05 5.8C10.3833 5.8 10.675 5.85833 10.925 5.975C11.175 6.09167 11.3833 6.25 11.55 6.45C11.7167 6.65 11.9 6.79167 12.1 6.875C12.3167 6.94167 12.5167 6.93333 12.7 6.85C12.95 6.75 13.1167 6.58333 13.2 6.35C13.3 6.1 13.2833 5.875 13.15 5.675C12.8833 5.29167 12.55 4.96667 12.15 4.7C11.7667 4.43333 11.35 4.28333 10.9 4.25V3.875C10.9 3.64167 10.8083 3.44167 10.625 3.275C10.4583 3.09167 10.2583 3 10.025 3C9.79167 3 9.58333 3.09167 9.4 3.275C9.23333 3.44167 9.15 3.64167 9.15 3.875V4.25C8.31667 4.43333 7.66667 4.8 7.2 5.35C6.73333 5.9 6.5 6.51667 6.5 7.2C6.5 7.98333 6.725 8.61667 7.175 9.1C7.64167 9.58333 8.36667 10 9.35 10.35C10.4 10.7333 11.125 11.075 11.525 11.375C11.9417 11.675 12.15 12.0667 12.15 12.55C12.15 13.1 11.95 13.5083 11.55 13.775C11.1667 14.025 10.7 14.15 10.15 14.15C9.71667 14.15 9.325 14.05 8.975 13.85C8.625 13.6333 8.33333 13.3167 8.1 12.9C7.96667 12.6667 7.79167 12.5083 7.575 12.425C7.35833 12.3417 7.14167 12.3417 6.925 12.425C6.69167 12.5083 6.51667 12.6667 6.4 12.9C6.3 13.1333 6.3 13.3583 6.4 13.575C6.66667 14.1417 7.025 14.6083 7.475 14.975C7.925 15.325 8.46667 15.5667 9.1 15.7V16.125C9.1 16.3583 9.18333 16.5667 9.35 16.75C9.53333 16.9167 9.74167 17 9.975 17ZM10 20C8.61667 20 7.31667 19.7417 6.1 19.225C4.88333 18.6917 3.825 17.975 2.925 17.075C2.025 16.175 1.30833 15.1167 0.775 13.9C0.258333 12.6833 5.96046e-08 11.3833 5.96046e-08 10C5.96046e-08 8.61667 0.258333 7.31667 0.775 6.1C1.30833 4.88333 2.025 3.825 2.925 2.925C3.825 2.025 4.88333 1.31667 6.1 0.799999C7.31667 0.266666 8.61667 -4.76837e-07 10 -4.76837e-07C11.3833 -4.76837e-07 12.6833 0.266666 13.9 0.799999C15.1167 1.31667 16.175 2.025 17.075 2.925C17.975 3.825 18.6833 4.88333 19.2 6.1C19.7333 7.31667 20 8.61667 20 10C20 11.3833 19.7333 12.6833 19.2 13.9C18.6833 15.1167 17.975 16.175 17.075 17.075C16.175 17.975 15.1167 18.6917 13.9 19.225C12.6833 19.7417 11.3833 20 10 20ZM10 18C12.2167 18 14.1 17.225 15.65 15.675C17.2167 14.1083 18 12.2167 18 10C18 7.78333 17.2167 5.9 15.65 4.35C14.1 2.78333 12.2167 2 10 2C7.78333 2 5.89167 2.78333 4.325 4.35C2.775 5.9 2 7.78333 2 10C2 12.2167 2.775 14.1083 4.325 15.675C5.89167 17.225 7.78333 18 10 18Z" fill="#DBFF00"/>
</svg>
